<mxfile host="Electron" agent="Mozilla/5.0 (Windows NT 10.0; Win64; x64) AppleWebKit/537.36 (KHTML, like Gecko) draw.io/24.7.17 Chrome/128.0.6613.36 Electron/32.0.1 Safari/537.36" version="24.7.17">
  <diagram name="Page-1" id="h1kXQThrMCem6ibpbVyC">
    <mxGraphModel dx="794" dy="557" grid="1" gridSize="10" guides="1" tooltips="1" connect="1" arrows="1" fold="1" page="1" pageScale="1" pageWidth="850" pageHeight="1100" math="0" shadow="0">
      <root>
        <mxCell id="0" />
        <mxCell id="1" parent="0" />
        <mxCell id="YiwVMZ55QfjLXtyIVbUY-11" value="" style="rounded=1;whiteSpace=wrap;html=1;fillColor=#f8cecc;strokeColor=#b85450;sketch=1;curveFitting=1;jiggle=2;" parent="1" vertex="1">
          <mxGeometry x="110" y="570" width="650" height="230" as="geometry" />
        </mxCell>
        <mxCell id="SoFl1mwXrpjrUQSBSHcY-1" value="" style="rounded=0;whiteSpace=wrap;html=1;fillColor=#e1d5e7;strokeColor=#9673a6;" parent="1" vertex="1">
          <mxGeometry x="320" y="300" width="310" height="170" as="geometry" />
        </mxCell>
        <mxCell id="SoFl1mwXrpjrUQSBSHcY-5" style="edgeStyle=orthogonalEdgeStyle;rounded=0;orthogonalLoop=1;jettySize=auto;html=1;entryX=0;entryY=0.5;entryDx=0;entryDy=0;flowAnimation=1;" parent="1" source="SoFl1mwXrpjrUQSBSHcY-3" target="SoFl1mwXrpjrUQSBSHcY-4" edge="1">
          <mxGeometry relative="1" as="geometry" />
        </mxCell>
        <mxCell id="SoFl1mwXrpjrUQSBSHcY-3" value="" style="verticalLabelPosition=bottom;html=1;verticalAlign=top;align=center;strokeColor=none;fillColor=#00BEF2;shape=mxgraph.azure.user;" parent="1" vertex="1">
          <mxGeometry x="40" y="70" width="70" height="80" as="geometry" />
        </mxCell>
        <mxCell id="SoFl1mwXrpjrUQSBSHcY-4" value="Kubectl" style="rounded=1;whiteSpace=wrap;html=1;fillColor=#d5e8d4;strokeColor=#82b366;" parent="1" vertex="1">
          <mxGeometry x="150" y="130" width="90" height="40" as="geometry" />
        </mxCell>
        <mxCell id="SoFl1mwXrpjrUQSBSHcY-6" value="Kubectl&amp;nbsp; run nginx --image=nginx:latest" style="rounded=1;whiteSpace=wrap;html=1;fillColor=#f8cecc;strokeColor=#b85450;" parent="1" vertex="1">
          <mxGeometry x="170" y="210" width="260" height="50" as="geometry" />
        </mxCell>
        <mxCell id="SoFl1mwXrpjrUQSBSHcY-7" style="edgeStyle=orthogonalEdgeStyle;rounded=0;orthogonalLoop=1;jettySize=auto;html=1;entryX=0.374;entryY=0.04;entryDx=0;entryDy=0;entryPerimeter=0;flowAnimation=1;" parent="1" source="SoFl1mwXrpjrUQSBSHcY-4" target="SoFl1mwXrpjrUQSBSHcY-6" edge="1">
          <mxGeometry relative="1" as="geometry" />
        </mxCell>
        <mxCell id="SoFl1mwXrpjrUQSBSHcY-8" value="Worker Node" style="rounded=1;whiteSpace=wrap;html=1;fillColor=#a20025;fontColor=#ffffff;strokeColor=#6F0000;" parent="1" vertex="1">
          <mxGeometry x="380" y="280" width="120" height="40" as="geometry" />
        </mxCell>
        <mxCell id="SoFl1mwXrpjrUQSBSHcY-13" style="edgeStyle=orthogonalEdgeStyle;rounded=0;orthogonalLoop=1;jettySize=auto;html=1;entryX=0;entryY=0.75;entryDx=0;entryDy=0;exitX=0;exitY=0.75;exitDx=0;exitDy=0;" parent="1" source="SoFl1mwXrpjrUQSBSHcY-9" target="SoFl1mwXrpjrUQSBSHcY-11" edge="1">
          <mxGeometry relative="1" as="geometry" />
        </mxCell>
        <mxCell id="SoFl1mwXrpjrUQSBSHcY-9" value="Kubelet" style="rounded=1;whiteSpace=wrap;html=1;fillColor=#1ba1e2;fontColor=#ffffff;strokeColor=#006EAF;" parent="1" vertex="1">
          <mxGeometry x="385" y="320" width="105" height="30" as="geometry" />
        </mxCell>
        <mxCell id="SoFl1mwXrpjrUQSBSHcY-11" value="Container Runtime" style="rounded=1;whiteSpace=wrap;html=1;fillColor=#0050ef;fontColor=#ffffff;strokeColor=#001DBC;" parent="1" vertex="1">
          <mxGeometry x="400" y="350" width="90" height="40" as="geometry" />
        </mxCell>
        <mxCell id="SoFl1mwXrpjrUQSBSHcY-14" value="" style="rounded=1;whiteSpace=wrap;html=1;fillColor=#008a00;fontColor=#ffffff;strokeColor=#005700;" parent="1" vertex="1">
          <mxGeometry x="405" y="390" width="140" height="70" as="geometry" />
        </mxCell>
        <mxCell id="SoFl1mwXrpjrUQSBSHcY-16" value="Nginx" style="ellipse;whiteSpace=wrap;html=1;aspect=fixed;fillColor=#e3c800;fontColor=#000000;strokeColor=#B09500;" parent="1" vertex="1">
          <mxGeometry x="470" y="395" width="60" height="60" as="geometry" />
        </mxCell>
        <mxCell id="SoFl1mwXrpjrUQSBSHcY-17" value="" style="rounded=1;whiteSpace=wrap;html=1;fillColor=#f0a30a;fontColor=#000000;strokeColor=#BD7000;" parent="1" vertex="1">
          <mxGeometry x="500" y="120" width="170" height="120" as="geometry" />
        </mxCell>
        <mxCell id="SoFl1mwXrpjrUQSBSHcY-18" value="" style="image;aspect=fixed;html=1;points=[];align=center;fontSize=12;image=img/lib/azure2/other/AVS_VM.svg;" parent="1" vertex="1">
          <mxGeometry x="580" y="426.62" width="50" height="46.18" as="geometry" />
        </mxCell>
        <mxCell id="SoFl1mwXrpjrUQSBSHcY-19" value="" style="image;aspect=fixed;html=1;points=[];align=center;fontSize=12;image=img/lib/azure2/other/AVS_VM.svg;" parent="1" vertex="1">
          <mxGeometry x="630" y="120" width="40" height="36.94" as="geometry" />
        </mxCell>
        <mxCell id="SoFl1mwXrpjrUQSBSHcY-23" style="edgeStyle=orthogonalEdgeStyle;rounded=0;orthogonalLoop=1;jettySize=auto;html=1;entryX=0.75;entryY=0;entryDx=0;entryDy=0;exitX=0.5;exitY=1;exitDx=0;exitDy=0;exitPerimeter=0;flowAnimation=1;" parent="1" source="SoFl1mwXrpjrUQSBSHcY-20" target="SoFl1mwXrpjrUQSBSHcY-8" edge="1">
          <mxGeometry relative="1" as="geometry">
            <Array as="points">
              <mxPoint x="520" y="205" />
              <mxPoint x="520" y="260" />
              <mxPoint x="470" y="260" />
            </Array>
          </mxGeometry>
        </mxCell>
        <mxCell id="SoFl1mwXrpjrUQSBSHcY-20" value="API server" style="aspect=fixed;sketch=0;html=1;dashed=0;whitespace=wrap;verticalLabelPosition=bottom;verticalAlign=top;fillColor=#2875E2;strokeColor=#ffffff;points=[[0.005,0.63,0],[0.1,0.2,0],[0.9,0.2,0],[0.5,0,0],[0.995,0.63,0],[0.72,0.99,0],[0.5,1,0],[0.28,0.99,0]];shape=mxgraph.kubernetes.icon2;prIcon=api" parent="1" vertex="1">
          <mxGeometry x="510" y="150" width="57" height="54.72" as="geometry" />
        </mxCell>
        <mxCell id="SoFl1mwXrpjrUQSBSHcY-22" style="edgeStyle=orthogonalEdgeStyle;rounded=0;orthogonalLoop=1;jettySize=auto;html=1;entryX=0.5;entryY=0;entryDx=0;entryDy=0;entryPerimeter=0;flowAnimation=1;" parent="1" source="SoFl1mwXrpjrUQSBSHcY-6" target="SoFl1mwXrpjrUQSBSHcY-20" edge="1">
          <mxGeometry relative="1" as="geometry" />
        </mxCell>
        <mxCell id="SoFl1mwXrpjrUQSBSHcY-24" value="Control Plane" style="text;html=1;align=center;verticalAlign=middle;whiteSpace=wrap;rounded=0;" parent="1" vertex="1">
          <mxGeometry x="575" y="240" width="85" height="30" as="geometry" />
        </mxCell>
        <mxCell id="SoFl1mwXrpjrUQSBSHcY-26" value="" style="aspect=fixed;sketch=0;html=1;dashed=0;whitespace=wrap;verticalLabelPosition=bottom;verticalAlign=top;fillColor=#2875E2;strokeColor=#ffffff;points=[[0.005,0.63,0],[0.1,0.2,0],[0.9,0.2,0],[0.5,0,0],[0.995,0.63,0],[0.72,0.99,0],[0.5,1,0],[0.28,0.99,0]];shape=mxgraph.kubernetes.icon2;kubernetesLabel=1;prIcon=api" parent="1" vertex="1">
          <mxGeometry x="514" y="153" width="50" height="48" as="geometry" />
        </mxCell>
        <mxCell id="SoFl1mwXrpjrUQSBSHcY-27" value="pause contianer" style="ellipse;whiteSpace=wrap;html=1;aspect=fixed;fillColor=#e3c800;fontColor=#000000;strokeColor=#B09500;" parent="1" vertex="1">
          <mxGeometry x="410" y="395" width="60" height="60" as="geometry" />
        </mxCell>
        <mxCell id="YiwVMZ55QfjLXtyIVbUY-1" value="" style="rounded=1;whiteSpace=wrap;html=1;sketch=1;curveFitting=1;jiggle=2;" parent="1" vertex="1">
          <mxGeometry x="150" y="600" width="130" height="160" as="geometry" />
        </mxCell>
        <mxCell id="YiwVMZ55QfjLXtyIVbUY-2" value="C1" style="ellipse;whiteSpace=wrap;html=1;aspect=fixed;fillColor=#0050ef;fontColor=#ffffff;strokeColor=#001DBC;" parent="1" vertex="1">
          <mxGeometry x="165" y="630" width="60" height="60" as="geometry" />
        </mxCell>
        <mxCell id="YiwVMZ55QfjLXtyIVbUY-4" value="" style="rounded=1;whiteSpace=wrap;html=1;sketch=1;curveFitting=1;jiggle=2;" parent="1" vertex="1">
          <mxGeometry x="560" y="600" width="115" height="160" as="geometry" />
        </mxCell>
        <mxCell id="YiwVMZ55QfjLXtyIVbUY-5" value="C2" style="ellipse;whiteSpace=wrap;html=1;aspect=fixed;fillColor=#6a00ff;fontColor=#ffffff;strokeColor=#3700CC;" parent="1" vertex="1">
          <mxGeometry x="600" y="630" width="60" height="60" as="geometry" />
        </mxCell>
        <mxCell id="YiwVMZ55QfjLXtyIVbUY-6" value="Node1" style="text;html=1;align=center;verticalAlign=middle;whiteSpace=wrap;rounded=0;" parent="1" vertex="1">
          <mxGeometry x="200" y="760" width="60" height="30" as="geometry" />
        </mxCell>
        <mxCell id="YiwVMZ55QfjLXtyIVbUY-7" value="Node2" style="text;html=1;align=center;verticalAlign=middle;whiteSpace=wrap;rounded=0;" parent="1" vertex="1">
          <mxGeometry x="580" y="760" width="60" height="30" as="geometry" />
        </mxCell>
        <mxCell id="YiwVMZ55QfjLXtyIVbUY-8" value="Calico network&amp;nbsp;" style="rounded=1;whiteSpace=wrap;html=1;glass=1;" parent="1" vertex="1">
          <mxGeometry x="360" y="645" width="110" height="30" as="geometry" />
        </mxCell>
        <mxCell id="YiwVMZ55QfjLXtyIVbUY-9" style="edgeStyle=orthogonalEdgeStyle;rounded=0;orthogonalLoop=1;jettySize=auto;html=1;entryX=0.995;entryY=0.375;entryDx=0;entryDy=0;entryPerimeter=0;" parent="1" source="YiwVMZ55QfjLXtyIVbUY-8" target="YiwVMZ55QfjLXtyIVbUY-1" edge="1">
          <mxGeometry relative="1" as="geometry">
            <Array as="points">
              <mxPoint x="340" y="660" />
              <mxPoint x="340" y="660" />
            </Array>
          </mxGeometry>
        </mxCell>
        <mxCell id="YiwVMZ55QfjLXtyIVbUY-10" style="edgeStyle=orthogonalEdgeStyle;rounded=0;orthogonalLoop=1;jettySize=auto;html=1;entryX=-0.017;entryY=0.379;entryDx=0;entryDy=0;entryPerimeter=0;" parent="1" source="YiwVMZ55QfjLXtyIVbUY-8" target="YiwVMZ55QfjLXtyIVbUY-4" edge="1">
          <mxGeometry relative="1" as="geometry">
            <Array as="points">
              <mxPoint x="510" y="660" />
            </Array>
          </mxGeometry>
        </mxCell>
        <mxCell id="YiwVMZ55QfjLXtyIVbUY-12" value="Cluster is configured on AZURE CNI OVERLAY" style="rounded=1;whiteSpace=wrap;html=1;" parent="1" vertex="1">
          <mxGeometry x="305" y="540" width="205" height="60" as="geometry" />
        </mxCell>
        <mxCell id="YiwVMZ55QfjLXtyIVbUY-13" value="" style="rounded=1;whiteSpace=wrap;html=1;fillColor=#fff2cc;strokeColor=#d6b656;" parent="1" vertex="1">
          <mxGeometry x="120" y="880" width="230" height="200" as="geometry" />
        </mxCell>
        <mxCell id="YiwVMZ55QfjLXtyIVbUY-14" value="" style="rounded=1;whiteSpace=wrap;html=1;fillColor=#1ba1e2;fontColor=#ffffff;strokeColor=#006EAF;" parent="1" vertex="1">
          <mxGeometry x="190" y="930" width="120" height="120" as="geometry" />
        </mxCell>
        <mxCell id="YiwVMZ55QfjLXtyIVbUY-15" value="Node" style="text;html=1;align=center;verticalAlign=middle;whiteSpace=wrap;rounded=0;fillColor=#fa6800;fontColor=#000000;strokeColor=#C73500;" parent="1" vertex="1">
          <mxGeometry x="130" y="890" width="220" height="30" as="geometry" />
        </mxCell>
        <mxCell id="YiwVMZ55QfjLXtyIVbUY-16" value="Container" style="ellipse;whiteSpace=wrap;html=1;aspect=fixed;fillColor=#a20025;fontColor=#ffffff;strokeColor=#6F0000;" parent="1" vertex="1">
          <mxGeometry x="210" y="970" width="65" height="65" as="geometry" />
        </mxCell>
        <mxCell id="YiwVMZ55QfjLXtyIVbUY-17" value="&lt;b&gt;Pod&lt;/b&gt;" style="text;html=1;align=center;verticalAlign=middle;whiteSpace=wrap;rounded=0;fillColor=#1ba1e2;fontColor=#ffffff;strokeColor=#006EAF;" parent="1" vertex="1">
          <mxGeometry x="190" y="930" width="60" height="30" as="geometry" />
        </mxCell>
        <mxCell id="YiwVMZ55QfjLXtyIVbUY-25" value="" style="rounded=1;whiteSpace=wrap;html=1;fillColor=#fff2cc;strokeColor=#d6b656;" parent="1" vertex="1">
          <mxGeometry x="480" y="880" width="230" height="200" as="geometry" />
        </mxCell>
        <mxCell id="YiwVMZ55QfjLXtyIVbUY-26" value="" style="rounded=1;whiteSpace=wrap;html=1;fillColor=#1ba1e2;fontColor=#ffffff;strokeColor=#006EAF;" parent="1" vertex="1">
          <mxGeometry x="550" y="930" width="120" height="120" as="geometry" />
        </mxCell>
        <mxCell id="YiwVMZ55QfjLXtyIVbUY-27" value="Node" style="text;html=1;align=center;verticalAlign=middle;whiteSpace=wrap;rounded=0;fillColor=#fa6800;fontColor=#000000;strokeColor=#C73500;" parent="1" vertex="1">
          <mxGeometry x="490" y="890" width="220" height="30" as="geometry" />
        </mxCell>
        <mxCell id="YiwVMZ55QfjLXtyIVbUY-28" value="Container" style="ellipse;whiteSpace=wrap;html=1;aspect=fixed;fillColor=#a20025;fontColor=#ffffff;strokeColor=#6F0000;" parent="1" vertex="1">
          <mxGeometry x="570" y="970" width="65" height="65" as="geometry" />
        </mxCell>
        <mxCell id="YiwVMZ55QfjLXtyIVbUY-29" value="&lt;b&gt;Pod&lt;/b&gt;" style="text;html=1;align=center;verticalAlign=middle;whiteSpace=wrap;rounded=0;fillColor=#008a00;fontColor=#ffffff;strokeColor=#005700;" parent="1" vertex="1">
          <mxGeometry x="550" y="930" width="60" height="30" as="geometry" />
        </mxCell>
        <mxCell id="YiwVMZ55QfjLXtyIVbUY-31" value="" style="verticalLabelPosition=bottom;verticalAlign=top;html=1;shape=mxgraph.basic.x" parent="1" vertex="1">
          <mxGeometry x="225" y="1010" width="50" height="50" as="geometry" />
        </mxCell>
        <mxCell id="YiwVMZ55QfjLXtyIVbUY-32" value="" style="verticalLabelPosition=bottom;verticalAlign=top;html=1;shape=mxgraph.basic.tick" parent="1" vertex="1">
          <mxGeometry x="600" y="980" width="85" height="100" as="geometry" />
        </mxCell>
        <mxCell id="YiwVMZ55QfjLXtyIVbUY-33" value="" style="rounded=1;whiteSpace=wrap;html=1;fillColor=#a0522d;fontColor=#ffffff;strokeColor=#6D1F00;" parent="1" vertex="1">
          <mxGeometry x="230" y="1170" width="250" height="160" as="geometry" />
        </mxCell>
        <mxCell id="YiwVMZ55QfjLXtyIVbUY-34" value="nginx-container" style="ellipse;whiteSpace=wrap;html=1;" parent="1" vertex="1">
          <mxGeometry x="305" y="1220" width="120" height="80" as="geometry" />
        </mxCell>
        <mxCell id="YiwVMZ55QfjLXtyIVbUY-35" value="Ngincxcontainer having its own data" style="text;html=1;align=center;verticalAlign=middle;whiteSpace=wrap;rounded=0;fillColor=#f0a30a;fontColor=#000000;strokeColor=#BD7000;" parent="1" vertex="1">
          <mxGeometry x="485" y="1180" width="265" height="30" as="geometry" />
        </mxCell>
        <mxCell id="YiwVMZ55QfjLXtyIVbUY-36" value="if conatiner down then data will be loss" style="text;html=1;align=center;verticalAlign=middle;whiteSpace=wrap;rounded=0;fillColor=#e3c800;fontColor=#000000;strokeColor=#B09500;" parent="1" vertex="1">
          <mxGeometry x="490" y="1210" width="265" height="30" as="geometry" />
        </mxCell>
        <mxCell id="YiwVMZ55QfjLXtyIVbUY-48" style="edgeStyle=orthogonalEdgeStyle;rounded=0;orthogonalLoop=1;jettySize=auto;html=1;entryX=0.5;entryY=0;entryDx=0;entryDy=0;" parent="1" source="YiwVMZ55QfjLXtyIVbUY-37" target="YiwVMZ55QfjLXtyIVbUY-45" edge="1">
          <mxGeometry relative="1" as="geometry" />
        </mxCell>
        <mxCell id="YiwVMZ55QfjLXtyIVbUY-37" value="Volume" style="rounded=1;whiteSpace=wrap;html=1;fontStyle=1;fillColor=#b1ddf0;strokeColor=#10739e;" parent="1" vertex="1">
          <mxGeometry x="195" y="1360" width="465" height="40" as="geometry" />
        </mxCell>
        <mxCell id="YiwVMZ55QfjLXtyIVbUY-38" value="" style="rounded=1;whiteSpace=wrap;html=1;fillColor=#e6d0de;gradientColor=#d5739d;strokeColor=#996185;" parent="1" vertex="1">
          <mxGeometry x="250" y="1526" width="340" height="210" as="geometry" />
        </mxCell>
        <mxCell id="YiwVMZ55QfjLXtyIVbUY-40" value="" style="rounded=1;whiteSpace=wrap;html=1;fillColor=#d5e8d4;gradientColor=#97d077;strokeColor=#82b366;" parent="1" vertex="1">
          <mxGeometry x="333" y="1566" width="197" height="150" as="geometry" />
        </mxCell>
        <mxCell id="YiwVMZ55QfjLXtyIVbUY-41" value="Emptydir" style="rounded=1;whiteSpace=wrap;html=1;fillColor=#dae8fc;gradientColor=#7ea6e0;strokeColor=#6c8ebf;" parent="1" vertex="1">
          <mxGeometry x="333" y="1676" width="77" height="40" as="geometry" />
        </mxCell>
        <mxCell id="YiwVMZ55QfjLXtyIVbUY-54" style="edgeStyle=orthogonalEdgeStyle;rounded=0;orthogonalLoop=1;jettySize=auto;html=1;entryX=0.5;entryY=0;entryDx=0;entryDy=0;" parent="1" source="YiwVMZ55QfjLXtyIVbUY-42" target="YiwVMZ55QfjLXtyIVbUY-41" edge="1">
          <mxGeometry relative="1" as="geometry" />
        </mxCell>
        <mxCell id="YiwVMZ55QfjLXtyIVbUY-42" value="Container" style="ellipse;whiteSpace=wrap;html=1;aspect=fixed;fillColor=#fff2cc;gradientColor=#ffd966;strokeColor=#d6b656;" parent="1" vertex="1">
          <mxGeometry x="420" y="1601" width="80" height="80" as="geometry" />
        </mxCell>
        <mxCell id="YiwVMZ55QfjLXtyIVbUY-43" value="Empty dir" style="rounded=1;whiteSpace=wrap;html=1;fillColor=#d0cee2;strokeColor=#56517e;" parent="1" vertex="1">
          <mxGeometry x="210" y="1450" width="120" height="30" as="geometry" />
        </mxCell>
        <mxCell id="YiwVMZ55QfjLXtyIVbUY-44" value="PV" style="rounded=1;whiteSpace=wrap;html=1;fillColor=#bac8d3;strokeColor=#23445d;" parent="1" vertex="1">
          <mxGeometry x="355" y="1470" width="120" height="30" as="geometry" />
        </mxCell>
        <mxCell id="YiwVMZ55QfjLXtyIVbUY-45" value="PVC" style="rounded=1;whiteSpace=wrap;html=1;fillColor=#f5f5f5;gradientColor=#b3b3b3;strokeColor=#666666;" parent="1" vertex="1">
          <mxGeometry x="530" y="1450" width="120" height="30" as="geometry" />
        </mxCell>
        <mxCell id="YiwVMZ55QfjLXtyIVbUY-46" style="edgeStyle=orthogonalEdgeStyle;rounded=0;orthogonalLoop=1;jettySize=auto;html=1;entryX=0.433;entryY=-0.089;entryDx=0;entryDy=0;entryPerimeter=0;" parent="1" source="YiwVMZ55QfjLXtyIVbUY-37" target="YiwVMZ55QfjLXtyIVbUY-43" edge="1">
          <mxGeometry relative="1" as="geometry" />
        </mxCell>
        <mxCell id="YiwVMZ55QfjLXtyIVbUY-47" style="edgeStyle=orthogonalEdgeStyle;rounded=0;orthogonalLoop=1;jettySize=auto;html=1;entryX=0.608;entryY=0.133;entryDx=0;entryDy=0;entryPerimeter=0;" parent="1" source="YiwVMZ55QfjLXtyIVbUY-37" target="YiwVMZ55QfjLXtyIVbUY-44" edge="1">
          <mxGeometry relative="1" as="geometry" />
        </mxCell>
        <mxCell id="YiwVMZ55QfjLXtyIVbUY-49" value="POD" style="text;html=1;align=center;verticalAlign=middle;whiteSpace=wrap;rounded=0;" parent="1" vertex="1">
          <mxGeometry x="335" y="1570" width="60" height="30" as="geometry" />
        </mxCell>
        <mxCell id="YiwVMZ55QfjLXtyIVbUY-50" value="POD" style="rounded=1;whiteSpace=wrap;html=1;" parent="1" vertex="1">
          <mxGeometry x="210" y="1780" width="120" height="60" as="geometry" />
        </mxCell>
        <mxCell id="YiwVMZ55QfjLXtyIVbUY-51" value="Container" style="ellipse;whiteSpace=wrap;html=1;" parent="1" vertex="1">
          <mxGeometry x="530" y="1770" width="115" height="70" as="geometry" />
        </mxCell>
        <mxCell id="YiwVMZ55QfjLXtyIVbUY-52" style="edgeStyle=orthogonalEdgeStyle;rounded=0;orthogonalLoop=1;jettySize=auto;html=1;entryX=0.029;entryY=0.6;entryDx=0;entryDy=0;entryPerimeter=0;" parent="1" source="YiwVMZ55QfjLXtyIVbUY-50" target="YiwVMZ55QfjLXtyIVbUY-51" edge="1">
          <mxGeometry relative="1" as="geometry" />
        </mxCell>
        <mxCell id="YiwVMZ55QfjLXtyIVbUY-53" value="Volume mount" style="edgeLabel;html=1;align=center;verticalAlign=middle;resizable=0;points=[];" parent="YiwVMZ55QfjLXtyIVbUY-52" vertex="1" connectable="0">
          <mxGeometry x="0.0779" relative="1" as="geometry">
            <mxPoint as="offset" />
          </mxGeometry>
        </mxCell>
        <mxCell id="wPnn08mayibXzSBLdgwf-1" value="" style="rounded=1;whiteSpace=wrap;html=1;" vertex="1" parent="1">
          <mxGeometry x="180" y="1950" width="310" height="320" as="geometry" />
        </mxCell>
        <mxCell id="wPnn08mayibXzSBLdgwf-2" value="" style="rounded=1;whiteSpace=wrap;html=1;" vertex="1" parent="1">
          <mxGeometry x="195" y="2110" width="100" height="140" as="geometry" />
        </mxCell>
        <mxCell id="wPnn08mayibXzSBLdgwf-3" value="" style="rounded=1;whiteSpace=wrap;html=1;" vertex="1" parent="1">
          <mxGeometry x="380" y="2110" width="100" height="140" as="geometry" />
        </mxCell>
        <mxCell id="wPnn08mayibXzSBLdgwf-4" value="volume" style="rounded=1;whiteSpace=wrap;html=1;" vertex="1" parent="1">
          <mxGeometry x="583" y="1980" width="120" height="60" as="geometry" />
        </mxCell>
        <mxCell id="wPnn08mayibXzSBLdgwf-5" style="edgeStyle=orthogonalEdgeStyle;rounded=0;orthogonalLoop=1;jettySize=auto;html=1;entryX=0.994;entryY=0.085;entryDx=0;entryDy=0;entryPerimeter=0;" edge="1" parent="1" source="wPnn08mayibXzSBLdgwf-4" target="wPnn08mayibXzSBLdgwf-1">
          <mxGeometry relative="1" as="geometry" />
        </mxCell>
      </root>
    </mxGraphModel>
  </diagram>
</mxfile>
